# xmcd
#
# Track frame offsets: 
#        150
#        11642
#        21379
#        33408
#        46020
#        57333
#        67454
#        77140
#        89177
#        105034
#        116258
#        129181
#        139131
#        150545
#        167841
#        185017
#        196130
#        209087
#        218985
#        232168
#
# Disc length: 3271 seconds
#
# Revision: 0
# Processed by: cddbd v1.5.2PL0 Copyright (c) Steve Scherf et al.
# Submitted via: ExactAudioCopy v1.3
#
DISCID=210cc514
DTITLE=John Lee Hooker - The very best of John Lee Hooker
DYEAR=2016
DGENRE=Blues
TTITLE0=Boom Boom
TTITLE1=Dimples
TTITLE2=I'm in the mood
TTITLE3=I'm so excited
TTITLE4=Hard headed woman
TTITLE5=Want ad blues
TTITLE6=I wanna walk
TTITLE7=Shake, holler and run
TTITLE8=Thelma
TTITLE9=A new leaf
TTITLE10=Lost a good girl
TTITLE11=Run on
TTITLE12=What do you say
TTITLE13=Blues before sunrise
TTITLE14=Process
TTITLE15=Let's make it
TTITLE16=I love you baby
TTITLE17=She's mins (keep your hands to yourself)
TTITLE18=Baby Lee
TTITLE19=I'm going upstairs
EXTD=
EXTT0=
EXTT1=
EXTT2=
EXTT3=
EXTT4=
EXTT5=
EXTT6=
EXTT7=
EXTT8=
EXTT9=
EXTT10=
EXTT11=
EXTT12=
EXTT13=
EXTT14=
EXTT15=
EXTT16=
EXTT17=
EXTT18=
EXTT19=
PLAYORDER=
